<svg width="7208" height="4412" viewBox="0 0 7208 4412" fill="none" xmlns="http://www.w3.org/2000/svg">
<path d="M4.08889 13.4602L0.228439 6.29295C-0.323057 5.74163 0.22843 4.63896 0.779926 4.08764L7.39786 0.228369C7.94936 -0.322958 9.05236 0.22836 9.60385 0.779687L13.4644 7.94695C14.0158 8.49828 13.4643 9.60089 12.9128 10.1522L6.29489 14.5629C5.74339 14.5629 4.64039 14.5629 4.08889 13.4602Z" transform="translate(2220 1684) scale(4)" fill="#76BFDF"/>
<path d="M286.235 324.189L89.9027 368.295C78.3213 371.052 66.1883 363.333 63.4308 351.755L0.560342 71.13C-2.19714 59.5521 5.52381 47.4229 17.1052 44.6663L213.438 0.56017C225.019 -2.19646 237.152 5.5221 239.91 17.1L302.78 297.725C305.538 309.854 298.368 321.432 286.235 324.189Z" transform="translate(4225.21 4) scale(4)" fill="#74A7FF" stroke="#527AFF" stroke-miterlimit="10"/>
<path d="M44.1197 9.37254L3.86046 18.1938C2.75746 18.1938 2.20592 17.6425 1.65442 17.0911L0 11.0265C0 9.92388 0.551479 9.37255 1.10298 8.82123L41.3622 0C42.4652 0 43.0167 0.55132 43.5681 1.10265L45.2227 7.16724C45.7742 8.26989 45.2227 9.37254 44.1197 9.37254Z" transform="translate(4350.99 266.467) scale(4)" fill="#3D449A"/>
<path d="M153.867 9.37255L3.86046 43.0035C2.75746 43.0035 2.206 42.4521 1.6545 41.9008L0 35.8362C0 34.7336 0.551479 34.1822 1.10298 33.6309L151.11 0C152.213 0 152.764 0.55132 153.316 1.10265L154.97 7.16724C155.522 8.26989 154.97 9.37255 153.867 9.37255Z" transform="translate(4370.84 246.619) scale(4)" fill="#3D449A"/>
<path d="M169.309 9.37256L3.86046 46.3114C2.75746 46.3114 2.206 45.7601 1.6545 45.2088L0 39.1442C0 38.0415 0.551479 37.4902 1.10298 36.9389L166.552 0C167.655 0 168.206 0.551331 168.758 1.10266L170.412 7.16724C170.412 8.26989 169.861 8.82123 169.309 9.37256Z" transform="translate(4452.46 275.288) scale(4)" fill="#3D449A"/>
<path d="M169.309 9.37256L3.86045 46.3114C2.75746 46.3114 2.206 45.7601 1.6545 45.2088L0 39.1442C0 38.0415 0.551479 37.4902 1.10298 36.9389L166.552 0C167.655 0 168.206 0.551331 168.758 1.10266L170.412 7.16724C170.412 8.26989 169.861 8.82123 169.309 9.37256Z" transform="translate(4403.93 381.143) scale(4)" fill="#3D449A"/>
<path d="M209.317 375.202L15.7422 319.518C4.16077 316.21 -2.45718 304.081 0.851792 291.952L80.2672 15.7373C83.5762 4.15947 95.7091 -2.45643 107.842 0.851532L301.417 56.5355C312.999 59.8435 319.616 71.9727 316.307 84.1018L236.892 360.316C233.032 371.894 220.899 378.51 209.317 375.202Z" transform="translate(4 1008.45) scale(4)" fill="#C9FFD4" stroke="#527AFF" stroke-miterlimit="10"/>
<path d="M74.1168 30.5392L1.31935 9.58886C0.216354 9.58886 -0.335141 8.4862 0.216355 7.38355L1.87084 1.31896C1.87084 0.216309 2.97383 -0.335043 4.07683 0.216284L76.8743 21.1667C77.9773 21.1667 78.5288 22.2694 77.9773 23.372L76.3228 29.4366C75.7713 30.5393 74.6683 31.0906 74.1168 30.5392Z" transform="translate(394.794 1138.9) scale(4)" fill="#30FD93"/>
<path d="M55.366 25.026L1.31935 9.58883C0.216354 9.58883 -0.335141 8.48617 0.216355 7.38351L1.87084 1.31893C1.87084 0.216274 2.97383 -0.335036 4.07683 0.216291L58.1234 15.6534C59.2264 15.6534 59.7779 16.7561 59.2264 17.8587L57.5719 23.9233C57.0204 24.4746 55.9174 25.026 55.366 25.026Z" transform="translate(377.148 1209.47) scale(4)" fill="#30FD93"/>
<path d="M61.7675 26.68L1.10299 9.03751C0.551495 9.03751 0 8.48621 0 7.38355L1.65449 1.31893C1.65449 0.216274 2.75748 -0.335036 3.86047 0.216291L64.525 17.8587C65.628 17.8587 66.1795 18.9614 65.628 20.064L63.9735 26.1286C63.9735 26.6799 62.8705 27.2313 61.7675 26.68Z" transform="translate(355.953 1277.84) scale(4)" fill="#30FD93"/>
<path d="M39.3726 20.6154L1.31935 9.58886C0.216356 9.58886 -0.335142 8.4862 0.216354 7.38355L1.87084 1.31896C1.87084 0.216309 2.97384 -0.335043 4.07683 0.216284L42.1301 11.2428C43.233 11.2428 43.7845 12.3455 43.233 13.4481L41.5786 19.5127C41.0271 20.6154 39.9241 20.6154 39.3726 20.6154Z" transform="translate(337.44 1346.2) scale(4)" fill="#30FD93"/>
<path d="M23.9307 16.2048L1.31935 9.58886C0.216358 9.58886 -0.335142 8.4862 0.216354 7.38355L1.87084 1.31896C1.87084 0.216309 2.97384 -0.335043 4.07683 0.216284L26.6882 6.83223C27.7911 6.83223 28.3426 7.93485 27.7912 9.0375L26.1367 15.1021C26.1367 16.2048 25.0337 16.7561 23.9307 16.2048Z" transform="translate(1038.94 1324.15) scale(4)" fill="#30FD93"/>
<path d="M80.7348 32.7446L1.31935 9.58883C0.216354 9.58883 -0.335141 8.48617 0.216355 7.38351L1.87084 1.31893C1.87084 0.216274 2.97383 -0.335036 4.07683 0.216291L83.4922 23.372C84.5952 23.372 85.1467 24.4747 84.5952 25.5773L82.9408 31.6419C82.9408 32.1932 81.8378 32.7446 80.7348 32.7446Z" transform="translate(520.537 1518.22) scale(4)" fill="#30FD93"/>
<path d="M164.346 56.4516L1.10299 9.58886C0.551495 9.03753 0 7.93487 0 7.38355L1.65449 1.31896C1.65449 0.216309 2.75748 -0.335043 3.86047 0.216284L166.552 47.079C167.655 47.079 168.206 48.1817 167.655 49.2844L166 55.3489C166 55.9003 164.897 56.4516 164.346 56.4516Z" transform="translate(355.953 1590.99) scale(4)" fill="#30FD93"/>
<path d="M184.967 62.5162L1.31935 9.58886C0.216355 9.58886 -0.335141 8.4862 0.216355 7.38355L1.87084 1.31896C1.87084 0.216309 2.97383 -0.335043 4.07683 0.216284L187.725 53.1436C188.828 53.1436 189.379 54.2463 188.828 55.3489L187.173 61.4135C186.622 62.5162 186.07 62.5162 184.967 62.5162Z" transform="translate(253.611 1632.89) scale(4)" fill="#30FD93"/>
<path d="M184.967 62.5162L1.31935 9.58886C0.216354 9.58886 -0.335141 8.4862 0.216355 7.38355L1.87084 1.31896C1.87084 0.216309 2.97383 -0.335043 4.07683 0.216284L187.725 53.1437C188.828 53.1437 189.379 54.2463 188.828 55.3489L187.173 61.4136C186.622 62.5162 186.07 63.0675 184.967 62.5162Z" transform="translate(233.757 1701.26) scale(4)" fill="#30FD93"/>
<path d="M184.967 62.5162L1.31935 9.58883C0.216354 9.58883 -0.335141 8.48616 0.216355 7.38351L1.87084 1.31893C1.87084 0.216274 2.97383 -0.335036 4.07683 0.216291L187.725 53.1436C188.828 53.1436 189.379 54.2463 188.828 55.3489L187.173 61.4135C186.622 61.9649 186.07 62.5162 184.967 62.5162Z" transform="translate(213.905 1769.62) scale(4)" fill="#30FD93"/>
<path d="M184.967 62.5162L1.31935 9.58883C0.216355 9.58883 -0.335141 8.48617 0.216354 7.38351L1.87084 1.31893C1.87084 0.216274 2.97383 -0.335036 4.07683 0.216291L187.725 53.1436C188.828 53.1436 189.379 54.2463 188.828 55.349L187.173 61.4135C187.173 62.5162 186.07 63.0675 184.967 62.5162Z" transform="translate(194.05 1835.78) scale(4)" fill="#30FD93"/>
<path d="M184.967 62.5162L1.31935 9.58883C0.216355 9.58883 -0.335141 8.48621 0.216354 7.38355L1.87084 1.31893C1.87084 0.216274 2.97383 -0.335036 4.07683 0.216291L187.725 53.1436C188.828 53.1436 189.379 54.2463 188.828 55.3489L187.173 61.4135C187.173 61.9649 186.07 62.5162 184.967 62.5162Z" transform="translate(174.196 1906.35) scale(4)" fill="#30FD93"/>
<path d="M82.3893 32.7446L1.31935 9.58886C0.216354 9.58886 -0.335141 8.4862 0.216355 7.38355L1.87084 1.31896C1.87084 0.216309 2.97383 -0.335043 4.07683 0.216284L85.1467 23.372C86.2497 23.372 86.8012 24.4746 86.2497 25.5773L84.5952 31.6419C84.5952 32.1932 83.4922 32.7446 82.3893 32.7446Z" transform="translate(154.342 1974.71) scale(4)" fill="#30FD93"/>
<path d="M164.011 56.4516L1.31935 9.58886C0.216354 9.58886 -0.335141 8.4862 0.216355 7.38355L1.87084 1.31896C1.87084 0.216309 2.97383 -0.335043 4.07683 0.216284L166.768 47.079C167.871 47.079 168.423 48.1817 167.871 49.2844L166.217 55.3489C165.665 55.9003 165.114 56.4516 164.011 56.4516Z" transform="translate(205.081 2118.06) scale(4)" fill="#30FD93"/>
<path d="M184.967 62.5162L1.31935 9.58883C0.216354 9.58883 -0.335141 8.48617 0.216355 7.38351L1.87084 1.31893C1.87084 0.216274 2.97383 -0.335036 4.07683 0.216291L187.725 53.1436C188.828 53.1436 189.379 54.2463 188.828 55.349L187.173 61.4135C187.173 62.5162 186.07 63.0675 184.967 62.5162Z" transform="translate(101.397 2157.75) scale(4)" fill="#30FD93"/>
<path d="M299.079 12.4113L388.973 192.695C394.488 203.722 390.076 216.953 379.046 222.467L121.497 350.926C110.467 356.439 97.2316 352.028 91.7167 341.002L2.37426 160.167C-3.1407 149.14 1.27128 135.908 12.3012 130.395L269.85 1.93613C280.328 -3.02581 294.116 1.93609 299.079 12.4113Z" transform="translate(5638.61 1972.25) scale(4)" fill="#003E9F" stroke="#527AFF" stroke-miterlimit="10"/>
<path d="M14.0158 0.77972L94.5342 162.318C95.0857 162.87 94.5343 163.972 93.9828 164.524L82.9529 170.037C82.4014 170.588 81.2983 170.037 80.7468 169.486L0.22843 7.94698C-0.323066 7.39566 0.228464 6.29295 0.77996 5.74163L11.8099 0.22836C12.9129 -0.322967 13.4643 0.228394 14.0158 0.77972Z" transform="translate(5797.2 2572.3) scale(4)" fill="#30FD93"/>
<path d="M5.19203 1.15239L47.6571 86.0566C48.2086 86.608 47.6571 87.7107 47.1056 88.262L44.8996 89.3646C44.3481 89.916 43.2452 89.3646 42.6937 88.8133L0.22843 3.90902C-0.323066 3.3577 0.228464 2.25508 0.77996 1.70375L2.98591 0.601029C4.0889 -0.501624 5.19203 0.0497357 5.19203 1.15239Z" transform="translate(6130.3 2806.78) scale(4)" fill="#30FD93"/>
<path d="M90.4454 9.37256L3.86045 28.669C2.75746 28.669 2.206 28.1177 1.6545 27.5663L0 21.5017C0 20.3991 0.551479 19.8478 1.10298 19.2964L87.6879 0C88.7909 0 89.3424 0.551331 89.8939 1.10266L91.5484 7.16724C92.0999 8.26989 91.5484 8.82123 90.4454 9.37256Z" transform="translate(4485.55 495.819) scale(4)" fill="#3D449A"/>
<path d="M169.309 9.37256L3.86046 46.3114C2.75746 46.3114 2.206 45.7601 1.6545 45.2088L0 39.1442C0 38.0415 0.551479 37.4902 1.10298 36.9389L166.552 0C167.655 0 168.206 0.551331 168.758 1.10266L170.412 7.16726C170.964 8.26992 170.412 8.82123 169.309 9.37256Z" transform="translate(4437.02 531.104) scale(4)" fill="#3D449A"/>
<path d="M169.309 9.37256L3.86054 46.3114C2.75755 46.3114 2.206 45.7601 1.6545 45.2088L0 39.1442C0 38.0415 0.551563 37.4902 1.10306 36.9389L166.552 0C167.655 0 168.206 0.551331 168.758 1.10266L170.412 7.16724C170.964 8.26989 170.412 9.37256 169.309 9.37256Z" transform="translate(4456.88 621.521) scale(4)" fill="#3D449A"/>
<path d="M22.0598 9.37256L3.86045 13.2318C2.75746 13.2318 2.206 12.6805 1.6545 12.1292L0 6.06458C0 4.96193 0.551479 4.41062 1.10297 3.85929L19.3024 0C20.4053 0 20.9569 0.551331 21.5084 1.10266L23.1628 7.16724C23.7143 8.26989 23.1628 9.37256 22.0598 9.37256Z" transform="translate(4540.7 797.945) scale(4)" fill="#3D449A"/>
<path d="M14.0158 0.913489L74.6804 123.308C75.2319 123.859 74.6804 124.962 74.1289 125.513L63.0989 131.027C62.5474 131.578 61.4445 131.027 60.893 130.475L0.22843 8.08067C-0.323066 7.52934 0.228464 6.42672 0.77996 5.87539L11.8099 0.362129C12.3614 -0.189198 13.4643 -0.189164 14.0158 0.913489Z" transform="translate(5960.44 2688.65) scale(4)" fill="#30FD93"/>
<path d="M8.50087 0.77972L29.4576 42.6806C30.0091 43.2319 29.4576 44.3345 28.9061 44.8858L23.3912 47.6425C22.8397 48.1938 21.7367 47.6424 21.1852 47.0911L0.22843 5.19035C-0.323066 4.63902 0.228464 3.53632 0.77996 2.98499L6.29492 0.22836C6.84642 -0.322967 7.94937 0.228394 8.50087 0.77972Z" transform="translate(6346.49 2907.51) scale(4)" fill="#30FD93"/>
<path d="M8.50091 0.913489L48.2085 80.3045C48.76 80.8558 48.2085 81.9585 47.657 82.5098L42.142 85.2665C41.5905 85.8178 40.4876 85.2664 39.9361 84.7151L0.228465 5.32412C-0.323031 4.77279 0.22833 3.67009 0.779826 3.11876L6.29479 0.362129C7.39778 -0.189198 7.94941 -0.189164 8.50091 0.913489Z" transform="translate(6326.64 2730.55) scale(4)" fill="#30FD93"/>
<path d="M8.50087 1.15233L48.2086 80.5434C48.7601 81.0947 48.2086 82.1974 47.6571 82.7487L42.1422 85.5053C41.5907 86.0566 40.4877 85.5053 39.9362 84.954L0.22843 5.56296C-0.323066 5.01164 0.228464 3.90902 0.77996 3.35769L6.29492 0.601056C6.84642 -0.501597 7.94937 0.0496791 8.50087 1.15233Z" transform="translate(6386.2 2700.93) scale(4)" fill="#30FD93"/>
<path d="M8.50087 0.779653L48.2086 80.1707C48.7601 80.7221 48.2086 81.8247 47.6571 82.376L42.1422 85.1326C41.5907 85.684 40.4877 85.1326 39.9362 84.5813L0.22843 5.19028C-0.323066 4.63896 0.228464 3.53634 0.77996 2.98501L6.29492 0.228377C6.84642 -0.322949 7.94937 0.228327 8.50087 0.779653Z" transform="translate(6450.17 2669.34) scale(4)" fill="#30FD93"/>
<path d="M8.50087 0.913489L41.5906 67.0727C42.1421 67.624 41.5906 68.7266 41.0391 69.278L35.5241 72.0346C34.9726 72.5859 33.8697 72.0346 33.3182 71.4833L0.22843 5.32412C-0.323066 4.77279 0.228464 3.67009 0.77996 3.11876L6.29492 0.362129C7.39791 -0.189198 8.50087 -0.189164 8.50087 0.913489Z" transform="translate(6534 2693.06) scale(4)" fill="#30FD93"/>
<path d="M8.50087 0.913436L37.7303 59.3541C38.2818 59.9054 37.7302 61.008 37.1787 61.5594L31.6638 64.316C31.1123 64.8673 30.0093 64.316 29.4578 63.7647L0.22843 5.32407C-0.323066 4.77274 0.228464 3.67012 0.77996 3.11879L6.29492 0.36216C6.84642 -0.189167 7.94937 -0.189217 8.50087 0.913436Z" transform="translate(6650.92 2673.21) scale(4)" fill="#30FD93"/>
<path d="M8.50087 1.15233L48.2086 80.5434C48.7601 81.0947 48.2086 82.1974 47.6571 82.7487L42.1422 85.5053C41.5907 86.0566 40.4877 85.5054 39.9362 84.954L0.22843 5.56296C-0.323066 5.01164 0.228464 3.90902 0.77996 3.35769L6.29492 0.601056C7.39791 -0.501597 8.50087 0.0496791 8.50087 1.15233Z" transform="translate(6664.15 2561.99) scale(4)" fill="#30FD93"/>
<path d="M8.50091 0.77972L48.2085 80.1707C48.76 80.722 48.2085 81.8247 47.657 82.3761L42.142 85.1327C41.5905 85.684 40.4876 85.1327 39.9361 84.5813L0.228465 5.19035C-0.323031 4.63902 0.22833 3.53632 0.779826 2.98499L6.29479 0.22836C7.39778 -0.322967 8.50091 0.228394 8.50091 0.77972Z" transform="translate(6723.71 2532.61) scale(4)" fill="#30FD93"/>
<path d="M8.50087 0.77972L48.2085 80.1707C48.76 80.722 48.2086 81.8247 47.6571 82.376L42.1422 85.1326C41.5907 85.6839 40.4875 85.1327 39.936 84.5813L0.22843 5.19027C-0.323066 4.63894 0.228464 3.53632 0.77996 2.98499L6.29492 0.22836C6.84642 -0.322967 7.94937 0.228394 8.50087 0.77972Z" transform="translate(6787.69 2501.73) scale(4)" fill="#30FD93"/>
<path d="M8.50087 0.779687L48.2086 80.1708C48.7601 80.7221 48.2086 81.8247 47.6571 82.376L42.1422 85.1327C41.5907 85.684 40.4877 85.1326 39.9362 84.5813L0.22843 5.19032C-0.323066 4.63899 0.228464 3.53637 0.77996 2.98504L6.29492 0.228369C6.84642 -0.322958 7.94937 0.22836 8.50087 0.779687Z" transform="translate(6849.46 2470.86) scale(4)" fill="#30FD93"/>
<path d="M8.50091 0.77972L48.2085 80.1707C48.76 80.722 48.2085 81.8247 47.657 82.3761L42.142 85.1327C41.5905 85.684 40.4876 85.1327 39.9361 84.5813L0.228465 5.19031C-0.323031 4.63898 0.22833 3.53632 0.779826 2.98499L6.29479 0.22836C6.84628 -0.322967 7.94941 0.228394 8.50091 0.77972Z" transform="translate(6911.22 2439.99) scale(4)" fill="#30FD93"/>
<path d="M8.50087 0.913489L48.2085 80.3045C48.76 80.8558 48.2086 81.9585 47.6571 82.5098L42.1422 85.2665C41.5907 85.8178 40.4875 85.2664 39.936 84.7151L0.22843 5.32408C-0.323066 4.77275 0.228464 3.67009 0.77996 3.11876L6.29492 0.362129C6.84642 -0.189198 7.94937 -0.189164 8.50087 0.913489Z" transform="translate(6081.77 2395.34) scale(4)" fill="#30FD93"/>
<path d="M8.50091 1.15236L48.2085 80.5434C48.76 81.0947 48.2085 82.1974 47.657 82.7487L42.142 85.5053C41.5905 86.0567 40.4876 85.5053 39.9361 84.954L0.228465 5.56299C-0.323031 5.01166 0.22833 3.909 0.779826 3.35768L6.29479 0.601042C7.39778 -0.501611 8.50091 0.0497074 8.50091 1.15236Z" transform="translate(6139.13 2365.72) scale(4)" fill="#30FD93"/>
<path d="M8.50087 0.779687L48.2085 80.1707C48.76 80.722 48.2086 81.8247 47.6571 82.376L42.1422 85.1327C41.5907 85.684 40.4875 85.1326 39.936 84.5813L0.22843 5.19032C-0.323066 4.63899 0.228464 3.53633 0.77996 2.985L6.29492 0.228369C6.84642 -0.322958 7.94937 0.22836 8.50087 0.779687Z" transform="translate(6203.1 2334.13) scale(4)" fill="#30FD93"/>
<path d="M8.50087 0.779687L48.2086 80.1707C48.7601 80.7221 48.2086 81.8247 47.6571 82.376L42.1422 85.1326C41.5907 85.684 40.4877 85.1327 39.9362 84.5814L0.22843 5.19032C-0.323066 4.63899 0.228464 3.53633 0.77996 2.985L6.29492 0.228369C6.84642 -0.322958 7.94937 0.22836 8.50087 0.779687Z" transform="translate(6264.87 2303.26) scale(4)" fill="#30FD93"/>
<path d="M8.50091 0.779687L48.2085 80.1708C48.76 80.7221 48.2085 81.8247 47.657 82.376L42.142 85.1327C41.5905 85.684 40.4876 85.1326 39.9361 84.5813L0.228465 5.19032C-0.323031 4.63899 0.22833 3.53633 0.779826 2.985L6.29479 0.228369C6.84628 -0.322958 7.94941 0.22836 8.50091 0.779687Z" transform="translate(6326.64 2272.38) scale(4)" fill="#30FD93"/>
<path d="M8.50087 1.15236L48.2086 80.5434C48.7601 81.0947 48.2086 82.1973 47.6571 82.7487L42.1422 85.5053C41.5907 86.0566 40.4877 85.5053 39.9362 84.954L0.22843 5.56295C-0.323066 5.01162 0.228464 3.909 0.77996 3.35768L6.29492 0.601042C6.84642 -0.501611 7.94937 0.0497074 8.50087 1.15236Z" transform="translate(6388.41 2242.22) scale(4)" fill="#30FD93"/>
<path d="M8.50091 0.779687L48.2085 80.1707C48.76 80.722 48.2085 81.8247 47.657 82.376L42.142 85.1327C41.5905 85.684 40.4876 85.1326 39.9361 84.5813L0.228465 5.19032C-0.323031 4.63899 0.22833 3.53633 0.779826 2.985L6.29479 0.228369C6.84628 -0.322958 7.94941 0.22836 8.50091 0.779687Z" transform="translate(6447.97 2212.84) scale(4)" fill="#30FD93"/>
<path d="M8.50087 0.913463L48.2086 80.3045C48.7601 80.8558 48.2086 81.9585 47.6571 82.5098L42.1422 85.2664C41.5907 85.8177 40.4877 85.2665 39.9362 84.7151L0.22843 5.32409C-0.323066 4.77277 0.228464 3.6701 0.77996 3.11878L6.29492 0.362144C7.39791 -0.189182 7.94937 -0.189191 8.50087 0.913463Z" transform="translate(6509.73 2181.43) scale(4)" fill="#30FD93"/>
<path d="M8.50087 0.779687L48.2086 80.1707C48.7601 80.722 48.2086 81.8247 47.6571 82.376L42.1422 85.1327C41.5907 85.684 40.4877 85.1326 39.9362 84.5813L0.22843 5.19032C-0.323066 4.63899 0.228464 3.53633 0.77996 2.985L6.29492 0.228369C7.39791 -0.322958 7.94937 0.22836 8.50087 0.779687Z" transform="translate(6571.5 2151.09) scale(4)" fill="#30FD93"/>
<path d="M8.50087 0.913463L25.0457 33.9931C25.5972 34.5444 25.0459 35.647 24.4944 36.1984L18.9794 38.955C18.4279 39.5063 17.3248 38.955 16.7733 38.4037L0.22843 5.32409C-0.323066 4.77277 0.228464 3.6701 0.77996 3.11878L6.29492 0.362144C6.84642 -0.189182 7.94937 -0.189191 8.50087 0.913463Z" transform="translate(6725.92 2304.93) scale(4)" fill="#30FD93"/>
<path d="M210.929 372.955L16.2513 321.13C4.66988 317.822 -2.49959 305.693 0.809389 294.115L75.2613 16.2463C78.5703 4.66844 90.7032 -2.49882 102.285 0.80914L296.963 52.6338C308.544 55.9418 315.714 68.071 312.405 79.6489L237.953 357.517C234.644 369.095 222.511 376.263 210.929 372.955Z" transform="translate(2143.97 2914.01) scale(4)" fill="#D591B8" stroke="#527AFF" stroke-miterlimit="10"/>
<path d="M41.0271 20.0641L1.31933 9.58883C0.216341 9.58883 -0.335138 8.48621 0.216358 7.38355L1.87086 1.31893C1.87086 0.216274 2.97382 -0.335036 4.07681 0.216291L43.7845 10.6915C44.8875 10.6915 45.439 11.7942 44.8875 12.8968L43.2331 18.9614C42.6816 19.5127 41.5786 20.0641 41.0271 20.0641Z" transform="translate(2539.01 3053.11) scale(4)" fill="#88E2DF"/>
<path d="M143.054 47.6304L1.31933 9.58883C0.216341 9.58883 -0.335138 8.48621 0.216358 7.38355L1.87086 1.31893C1.87086 0.216274 2.97382 -0.335036 4.07681 0.216291L145.811 38.2578C146.914 38.2578 147.466 39.3605 146.914 40.4631L145.26 46.5277C144.708 47.079 143.605 47.6304 143.054 47.6304Z" transform="translate(2605.19 3152.35) scale(4)" fill="#88E2DF"/>
<path d="M165.114 53.1436L1.31933 9.58883C0.216341 9.58883 -0.335138 8.48621 0.216357 7.38355L1.87082 1.31893C1.87082 0.216274 2.97382 -0.335036 4.07681 0.216291L167.871 43.7711C168.974 43.7711 169.526 44.8738 168.974 45.9764L167.32 52.041C166.768 52.5923 166.217 53.1436 165.114 53.1436Z" transform="translate(2501.51 3192.04) scale(4)" fill="#88E2DF"/>
<path d="M40.4756 20.064L1.31937 9.58883C0.216375 9.58883 -0.335146 8.48621 0.21635 7.38355L1.87085 1.31893C1.87085 0.216274 2.97386 -0.335036 4.07685 0.216291L43.2331 10.6915C44.336 10.6915 44.8875 11.7942 44.336 12.8968L42.6816 18.9614C42.6816 19.5127 41.5786 20.064 40.4756 20.064Z" transform="translate(2475.04 3280.26) scale(4)" fill="#88E2DF"/>
<path d="M143.054 47.6304L1.31933 9.58889C0.216341 9.58889 -0.335138 8.48619 0.216358 7.38354L1.87082 1.319C1.87082 0.216343 2.97382 -0.33505 4.07681 0.216276L145.811 38.2579C146.914 38.2579 147.466 39.3605 146.914 40.4631L145.26 46.5278C144.708 47.6304 144.157 48.1817 143.054 47.6304Z" transform="translate(2545.63 3370.67) scale(4)" fill="#88E2DF"/>
<path d="M39.9241 20.0641L1.31937 9.5889C0.216375 9.5889 -0.335146 8.48619 0.21635 7.38354L1.87085 1.319C1.87085 0.216343 2.97386 -0.33505 4.07685 0.216276L42.6816 10.6915C43.7846 10.6915 44.336 11.7942 43.7845 12.8968L42.1301 18.9614C41.5786 19.5128 40.4756 20.0641 39.9241 20.0641Z" transform="translate(2433.12 3447.86) scale(4)" fill="#88E2DF"/>
<path d="M143.605 47.6304L1.31933 9.58889C0.216341 9.58889 -0.335138 8.48619 0.216358 7.38354L1.87082 1.319C1.87082 0.216343 2.97382 -0.33505 4.07681 0.216276L146.363 38.2579C147.466 38.2579 148.017 39.3605 147.466 40.4631L145.811 46.5278C145.26 47.6304 144.708 48.1817 143.605 47.6304Z" transform="translate(2501.51 3536.07) scale(4)" fill="#88E2DF"/>
<path d="M19.5187 14.5507L1.31937 9.58883C0.216375 9.58883 -0.335146 8.48612 0.21635 7.38347L1.87085 1.31893C1.87085 0.216274 2.97386 -0.335036 4.07685 0.216291L22.2762 5.1782C23.3792 5.1782 23.9307 6.28082 23.3792 7.38347L21.7247 13.4481C21.1732 13.9994 20.0702 14.5507 19.5187 14.5507Z" transform="translate(2400.03 3573.56) scale(4)" fill="#88E2DF"/>
<path d="M0 0L89.3424 158.231" transform="translate(1880.29 1060.38) scale(4)" stroke="#88E2DF" stroke-width="2" stroke-miterlimit="10"/>
<path d="M0 0L3.30897 17.0911L12.6844 11.5779L0 0Z" transform="translate(1847.2 1003.04) scale(4)" fill="#76BFDF"/>
<path d="M272.925 0H0V36.3963H272.925V0Z" transform="matrix(-1.85005 3.54657 -3.54703 -1.84915 2005.25 483.708)" fill="#636EDF"/>
<path d="M5.51496 2.20531L0 0" transform="translate(1538.36 1327.22) scale(4)" stroke="#88E2DF" stroke-width="0.1" stroke-miterlimit="10"/>
<path d="M4.96345 2.75663L0 0" transform="translate(1533.95 1336.04) scale(4)" stroke="#88E2DF" stroke-width="0.1" stroke-miterlimit="10"/>
<path d="M4.96345 2.75663L0 0" transform="translate(1529.54 1344.86) scale(4)" stroke="#88E2DF" stroke-width="0.1" stroke-miterlimit="10"/>
<path d="M4.96347 2.20531L0 0" transform="translate(1525.12 1355.89) scale(4)" stroke="#88E2DF" stroke-width="0.1" stroke-miterlimit="10"/>
<path d="M7.72093 3.85927L0 0" transform="translate(1507.48 1362.5) scale(4)" stroke="#88E2DF" stroke-width="0.15" stroke-miterlimit="10"/>
<path d="M4.96345 2.75663L0 0" transform="translate(1511.89 1377.94) scale(4)" stroke="#88E2DF" stroke-width="0.1" stroke-miterlimit="10"/>
<path d="M4.96345 2.75663L0 0" transform="translate(1507.48 1386.76) scale(4)" stroke="#88E2DF" stroke-width="0.1" stroke-miterlimit="10"/>
<path d="M4.96347 2.20531L0 0" transform="translate(1503.06 1397.79) scale(4)" stroke="#88E2DF" stroke-width="0.1" stroke-miterlimit="10"/>
<path d="M4.96345 2.75663L0 0" transform="translate(1496.45 1406.61) scale(4)" stroke="#88E2DF" stroke-width="0.1" stroke-miterlimit="10"/>
<path d="M9.37544 4.96195L0 0" transform="translate(1474.39 1408.82) scale(4)" stroke="#88E2DF" stroke-width="0.2" stroke-miterlimit="10"/>
<path d="M9.37546 4.96195L0 0" transform="translate(1957.5 480.381) scale(4)" stroke="#88E2DF" stroke-width="0.2" stroke-miterlimit="10"/>
<path d="M4.96347 2.75663L0 0" transform="translate(1970.73 500.229) scale(4)" stroke="#88E2DF" stroke-width="0.1" stroke-miterlimit="10"/>
<path d="M4.96347 2.20529L0 0" transform="translate(1964.12 511.256) scale(4)" stroke="#88E2DF" stroke-width="0.1" stroke-miterlimit="10"/>
<path d="M4.96347 2.75663L0 0" transform="translate(1959.7 520.077) scale(4)" stroke="#88E2DF" stroke-width="0.1" stroke-miterlimit="10"/>
<path d="M4.96347 2.75663L0 0" transform="translate(1955.29 528.898) scale(4)" stroke="#88E2DF" stroke-width="0.1" stroke-miterlimit="10"/>
<path d="M7.16942 3.85929L0 0" transform="translate(1939.85 535.514) scale(4)" stroke="#88E2DF" stroke-width="0.15" stroke-miterlimit="10"/>
<path d="M4.96347 2.20531L0 0" transform="translate(1942.06 553.156) scale(4)" stroke="#88E2DF" stroke-width="0.1" stroke-miterlimit="10"/>
<path d="M4.96347 2.75663L0 0" transform="translate(1937.64 561.978) scale(4)" stroke="#88E2DF" stroke-width="0.1" stroke-miterlimit="10"/>
<path d="M4.96347 2.75663L0 0" transform="translate(1933.23 570.799) scale(4)" stroke="#88E2DF" stroke-width="0.1" stroke-miterlimit="10"/>
<path d="M4.96343 2.20529L0 0" transform="translate(1928.82 581.825) scale(4)" stroke="#88E2DF" stroke-width="0.1" stroke-miterlimit="10"/>
<path d="M9.37546 4.96195L0 0" transform="translate(1904.55 584.031) scale(4)" stroke="#88E2DF" stroke-width="0.2" stroke-miterlimit="10"/>
<path d="M4.96343 2.75663L0 0" transform="translate(1917.79 603.878) scale(4)" stroke="#88E2DF" stroke-width="0.1" stroke-miterlimit="10"/>
<path d="M4.96347 2.75663L0 0" transform="translate(1911.17 612.7) scale(4)" stroke="#88E2DF" stroke-width="0.1" stroke-miterlimit="10"/>
<path d="M4.96343 2.20531L0 0" transform="translate(1906.76 623.726) scale(4)" stroke="#88E2DF" stroke-width="0.1" stroke-miterlimit="10"/>
<path d="M4.96347 2.75663L0 0" transform="translate(1902.35 632.547) scale(4)" stroke="#88E2DF" stroke-width="0.1" stroke-miterlimit="10"/>
<path d="M7.72091 3.85929L0 0" transform="translate(1884.7 639.164) scale(4)" stroke="#88E2DF" stroke-width="0.15" stroke-miterlimit="10"/>
<path d="M4.96347 2.75663L0 0" transform="translate(1889.11 654.601) scale(4)" stroke="#88E2DF" stroke-width="0.1" stroke-miterlimit="10"/>
<path d="M4.96343 2.20529L0 0" transform="translate(1884.7 665.627) scale(4)" stroke="#88E2DF" stroke-width="0.1" stroke-miterlimit="10"/>
<path d="M4.96347 2.75663L0 0" transform="translate(1880.29 674.448) scale(4)" stroke="#88E2DF" stroke-width="0.1" stroke-miterlimit="10"/>
<path d="M4.96343 2.75663L0 0" transform="translate(1873.67 683.27) scale(4)" stroke="#88E2DF" stroke-width="0.1" stroke-miterlimit="10"/>
<path d="M9.37541 4.96195L0 0" transform="translate(1851.61 685.475) scale(4)" stroke="#88E2DF" stroke-width="0.2" stroke-miterlimit="10"/>
<path d="M4.96343 2.75663L0 0" transform="translate(1862.64 707.528) scale(4)" stroke="#88E2DF" stroke-width="0.1" stroke-miterlimit="10"/>
<path d="M4.96347 2.75663L0 0" transform="translate(1858.23 716.349) scale(4)" stroke="#88E2DF" stroke-width="0.1" stroke-miterlimit="10"/>
<path d="M4.96347 2.20531L0 0" transform="translate(1853.82 727.375) scale(4)" stroke="#88E2DF" stroke-width="0.1" stroke-miterlimit="10"/>
<path d="M4.96347 2.75663L0 0" transform="translate(1847.2 736.197) scale(4)" stroke="#88E2DF" stroke-width="0.1" stroke-miterlimit="10"/>
<path d="M7.72095 3.85929L0 0" transform="translate(1831.76 742.813) scale(4)" stroke="#88E2DF" stroke-width="0.15" stroke-miterlimit="10"/>
<path d="M4.96347 2.75663L0 0" transform="translate(1836.17 758.25) scale(4)" stroke="#88E2DF" stroke-width="0.1" stroke-miterlimit="10"/>
<path d="M5.51496 2.20529L0 0" transform="translate(1829.55 769.276) scale(4)" stroke="#88E2DF" stroke-width="0.1" stroke-miterlimit="10"/>
<path d="M4.96347 2.75663L0 0" transform="translate(1825.14 778.098) scale(4)" stroke="#88E2DF" stroke-width="0.1" stroke-miterlimit="10"/>
<path d="M4.96347 2.75663L0 0" transform="translate(1820.73 786.919) scale(4)" stroke="#88E2DF" stroke-width="0.1" stroke-miterlimit="10"/>
<path d="M9.37541 4.96195L0 0" transform="translate(1796.46 789.124) scale(4)" stroke="#88E2DF" stroke-width="0.2" stroke-miterlimit="10"/>
<path d="M4.96347 2.75663L0 0" transform="translate(1809.7 808.972) scale(4)" stroke="#88E2DF" stroke-width="0.1" stroke-miterlimit="10"/>
<path d="M4.96347 2.20529L0 0" transform="translate(1805.28 819.999) scale(4)" stroke="#88E2DF" stroke-width="0.1" stroke-miterlimit="10"/>
<path d="M4.96347 2.75663L0 0" transform="translate(1798.67 828.819) scale(4)" stroke="#88E2DF" stroke-width="0.1" stroke-miterlimit="10"/>
<path d="M4.96347 2.75663L0 0" transform="translate(1794.25 837.641) scale(4)" stroke="#88E2DF" stroke-width="0.1" stroke-miterlimit="10"/>
<path d="M7.16947 3.85929L0 0" transform="translate(1778.81 844.257) scale(4)" stroke="#88E2DF" stroke-width="0.15" stroke-miterlimit="10"/>
<path d="M5.51496 2.20531L0 0" transform="translate(1781.02 861.899) scale(4)" stroke="#88E2DF" stroke-width="0.1" stroke-miterlimit="10"/>
<path d="M4.96347 2.75663L0 0" transform="translate(1776.61 870.721) scale(4)" stroke="#88E2DF" stroke-width="0.1" stroke-miterlimit="10"/>
<path d="M4.96347 2.75663L0 0" transform="translate(1772.19 879.542) scale(4)" stroke="#88E2DF" stroke-width="0.1" stroke-miterlimit="10"/>
<path d="M4.96347 2.20529L0 0" transform="translate(1767.78 890.568) scale(4)" stroke="#88E2DF" stroke-width="0.1" stroke-miterlimit="10"/>
<path d="M9.37541 4.96195L0 0" transform="translate(1743.52 892.774) scale(4)" stroke="#88E2DF" stroke-width="0.2" stroke-miterlimit="10"/>
<path d="M4.96347 2.75663L0 0" transform="translate(1754.55 912.622) scale(4)" stroke="#88E2DF" stroke-width="0.1" stroke-miterlimit="10"/>
<path d="M4.96347 2.75663L0 0" transform="translate(1750.13 921.442) scale(4)" stroke="#88E2DF" stroke-width="0.1" stroke-miterlimit="10"/>
<path d="M4.96347 2.20531L0 0" transform="translate(1745.72 932.469) scale(4)" stroke="#88E2DF" stroke-width="0.1" stroke-miterlimit="10"/>
<path d="M5.51496 2.75663L0 0" transform="translate(1739.1 941.291) scale(4)" stroke="#88E2DF" stroke-width="0.1" stroke-miterlimit="10"/>
<path d="M7.72095 3.85929L0 0" transform="translate(1723.66 947.906) scale(4)" stroke="#88E2DF" stroke-width="0.15" stroke-miterlimit="10"/>
<path d="M4.96347 2.75663L0 0" transform="translate(1728.07 963.343) scale(4)" stroke="#88E2DF" stroke-width="0.1" stroke-miterlimit="10"/>
<path d="M4.96347 2.20529L0 0" transform="translate(1723.66 974.37) scale(4)" stroke="#88E2DF" stroke-width="0.1" stroke-miterlimit="10"/>
<path d="M4.96347 2.75663L0 0" transform="translate(1717.04 983.191) scale(4)" stroke="#88E2DF" stroke-width="0.1" stroke-miterlimit="10"/>
<path d="M4.96347 2.75663L0 0" transform="translate(1712.63 992.013) scale(4)" stroke="#88E2DF" stroke-width="0.1" stroke-miterlimit="10"/>
<path d="M9.9269 4.96195L0 0" transform="translate(1688.37 994.218) scale(4)" stroke="#88E2DF" stroke-width="0.2" stroke-miterlimit="10"/>
<path d="M4.96347 2.20531L0 0" transform="translate(1701.6 1016.27) scale(4)" stroke="#88E2DF" stroke-width="0.1" stroke-miterlimit="10"/>
<path d="M4.96343 2.75663L0 0" transform="translate(1697.19 1025.09) scale(4)" stroke="#88E2DF" stroke-width="0.1" stroke-miterlimit="10"/>
<path d="M4.96347 2.75663L0 0" transform="translate(1690.57 1033.91) scale(4)" stroke="#88E2DF" stroke-width="0.1" stroke-miterlimit="10"/>
<path d="M4.96343 2.20529L0 0" transform="translate(1686.16 1044.94) scale(4)" stroke="#88E2DF" stroke-width="0.1" stroke-miterlimit="10"/>
<path d="M7.16947 3.85929L0 0" transform="translate(1670.72 1051.56) scale(4)" stroke="#88E2DF" stroke-width="0.15" stroke-miterlimit="10"/>
<path d="M5.51496 2.75663L0 0" transform="translate(1672.92 1066.99) scale(4)" stroke="#88E2DF" stroke-width="0.1" stroke-miterlimit="10"/>
<path d="M4.96347 2.75663L0 0" transform="translate(1668.51 1075.81) scale(4)" stroke="#88E2DF" stroke-width="0.1" stroke-miterlimit="10"/>
<path d="M4.96343 2.20527L0 0" transform="translate(1664.1 1086.84) scale(4)" stroke="#88E2DF" stroke-width="0.1" stroke-miterlimit="10"/>
<path d="M4.96347 2.75663L0 0" transform="translate(1659.69 1095.66) scale(4)" stroke="#88E2DF" stroke-width="0.1" stroke-miterlimit="10"/>
<path d="M9.37541 4.9619L0 0" transform="translate(1635.42 1097.87) scale(4)" stroke="#88E2DF" stroke-width="0.2" stroke-miterlimit="10"/>
<path d="M5.51496 2.20527L0 0" transform="translate(1646.45 1119.92) scale(4)" stroke="#88E2DF" stroke-width="0.1" stroke-miterlimit="10"/>
<path d="M4.96345 2.75663L0 0" transform="translate(1642.04 1128.74) scale(4)" stroke="#88E2DF" stroke-width="0.1" stroke-miterlimit="10"/>
<path d="M4.96347 2.75663L0 0" transform="translate(1637.63 1137.56) scale(4)" stroke="#88E2DF" stroke-width="0.1" stroke-miterlimit="10"/>
<path d="M4.96345 2.20531L0 0" transform="translate(1633.22 1148.59) scale(4)" stroke="#88E2DF" stroke-width="0.1" stroke-miterlimit="10"/>
<path d="M7.72095 3.85927L0 0" transform="translate(1615.57 1155.21) scale(4)" stroke="#88E2DF" stroke-width="0.15" stroke-miterlimit="10"/>
<path d="M4.96347 2.75663L0 0" transform="translate(1619.98 1170.64) scale(4)" stroke="#88E2DF" stroke-width="0.1" stroke-miterlimit="10"/>
<path d="M4.96347 2.75663L0 0" transform="translate(1615.57 1179.46) scale(4)" stroke="#88E2DF" stroke-width="0.1" stroke-miterlimit="10"/>
<path d="M4.96345 2.20531L0 0" transform="translate(1611.16 1190.49) scale(4)" stroke="#88E2DF" stroke-width="0.1" stroke-miterlimit="10"/>
<path d="M4.96347 2.75663L0 0" transform="translate(1604.54 1199.31) scale(4)" stroke="#88E2DF" stroke-width="0.1" stroke-miterlimit="10"/>
<path d="M9.37544 4.96195L0 0" transform="translate(1582.48 1201.52) scale(4)" stroke="#88E2DF" stroke-width="0.2" stroke-miterlimit="10"/>
<path d="M4.96347 2.20531L0 0" transform="translate(1593.51 1223.57) scale(4)" stroke="#88E2DF" stroke-width="0.1" stroke-miterlimit="10"/>
<path d="M4.96345 2.75663L0 0" transform="translate(1589.1 1232.39) scale(4)" stroke="#88E2DF" stroke-width="0.1" stroke-miterlimit="10"/>
<path d="M4.96345 2.75663L0 0" transform="translate(1584.68 1241.21) scale(4)" stroke="#88E2DF" stroke-width="0.1" stroke-miterlimit="10"/>
<path d="M4.96345 2.20527L0 0" transform="translate(1578.07 1252.24) scale(4)" stroke="#88E2DF" stroke-width="0.1" stroke-miterlimit="10"/>
<path d="M7.72093 3.85931L0 0" transform="translate(1562.62 1258.85) scale(4)" stroke="#88E2DF" stroke-width="0.15" stroke-miterlimit="10"/>
<path d="M4.96345 2.75663L0 0" transform="translate(1567.04 1274.29) scale(4)" stroke="#88E2DF" stroke-width="0.1" stroke-miterlimit="10"/>
<path d="M4.96347 2.75663L0 0" transform="translate(1560.42 1283.11) scale(4)" stroke="#88E2DF" stroke-width="0.1" stroke-miterlimit="10"/>
<path d="M4.96345 2.20531L0 0" transform="translate(1556.01 1294.14) scale(4)" stroke="#88E2DF" stroke-width="0.1" stroke-miterlimit="10"/>
<path d="M4.96345 2.75663L0 0" transform="translate(1551.59 1302.96) scale(4)" stroke="#88E2DF" stroke-width="0.1" stroke-miterlimit="10"/>
<path d="M9.37544 4.96195L0 0" transform="translate(1527.33 1305.17) scale(4)" stroke="#88E2DF" stroke-width="0.2" stroke-miterlimit="10"/>
<path d="M48.5317 9.37258L38.6047 89.8662C38.0532 92.6229 35.2957 94.8281 32.5382 94.8281L4.96343 91.5202C2.20595 90.9689 0 88.2122 0 85.4556L9.92694 4.96195C10.4784 2.20531 13.2359 0 15.9934 0L43.5681 3.30799C46.3256 3.85932 48.5317 6.61594 48.5317 9.37258Z" transform="translate(4928.96 2220.37) scale(4)" fill="#009EE9"/>
<path d="M65.6081 0H0V39.156H65.6081V0Z" transform="translate(4937.67 2476.77) scale(4.00021) rotate(-82.9098)" fill="#003B74" stroke="#003B74" stroke-width="0.1616" stroke-miterlimit="10"/>
<path d="M255.987 329.786L55.7943 351.839C43.6614 352.942 32.6315 344.121 31.5285 332.543L0.0931839 46.4046C-1.00981 34.2754 7.81413 23.2489 19.3955 22.1462L219.589 0.0931552C231.722 -1.0095 242.751 7.81173 243.854 19.3896L275.29 305.528C276.944 317.657 268.12 328.684 255.987 329.786Z" transform="translate(357.787 1401.83) scale(4)" fill="#C9FFD4" stroke="#527AFF" stroke-miterlimit="10"/>
<path d="M170.412 8.82122L2.20598 27.5663C1.10299 27.5663 0.551493 27.015 0.551493 25.9123L0 19.8477C0 18.7451 0.551492 18.1938 1.65448 18.1938L170.412 0C171.515 0 172.067 0.551343 172.067 1.654L172.618 7.71858C172.067 7.71858 171.515 8.82122 170.412 8.82122Z" transform="translate(545.667 1532.31) scale(4)" fill="#30FD93"/>
<path d="M192.472 9.9239L2.75748 30.8743C1.65449 30.8743 1.10299 30.323 1.10299 29.2203L0 22.6044C0 21.5017 0.551497 20.9504 1.65449 20.9504L191.369 0C192.472 0 193.024 0.551343 193.024 1.654L193.575 7.71858C194.127 8.82123 193.024 9.37257 192.472 9.9239Z" transform="translate(466.252 1598.47) scale(4)" fill="#30FD93"/>
<path d="M191.921 9.37253L2.20599 30.323C1.103 30.323 0.551498 29.7716 0.551498 28.669L0 22.6044C0 21.5017 0.551497 20.9504 1.65449 20.9504L190.818 0C191.921 0 192.472 0.551301 192.472 1.65395L193.024 7.71854C193.575 8.26987 193.024 9.37253 191.921 9.37253Z" transform="translate(475.076 1671.25) scale(4)" fill="#30FD93"/>
<path d="M191.921 9.37253L2.20598 30.323C1.10299 30.323 0.551493 29.7716 0.551493 28.669L0 22.6044C0 21.5017 0.551497 20.9504 1.65449 20.9504L191.369 0C192.472 0 193.024 0.551343 193.024 1.654L193.575 7.71858C193.575 8.26991 192.472 8.82121 191.921 9.37253Z" transform="translate(483.901 1741.82) scale(4)" fill="#30FD93"/>
<path d="M191.921 9.37258L2.20598 30.323C1.10299 30.323 0.551493 29.7717 0.551493 28.669L0 22.6044C0 21.5017 0.551492 20.9504 1.65448 20.9504L191.369 0C192.472 0 193.024 0.551343 193.024 1.654L193.575 7.71858C193.575 8.26991 193.024 9.37258 191.921 9.37258Z" transform="translate(490.517 1810.18) scale(4)" fill="#30FD93"/>
<path d="M191.921 9.37253L2.20598 30.323C1.10299 30.323 0.551498 29.7716 0.551498 28.669L0 22.6044C0 21.5017 0.551497 20.9504 1.65449 20.9504L191.369 0C192.472 0 193.024 0.551301 193.024 1.65395L193.575 7.71858C193.575 8.26991 192.472 8.82121 191.921 9.37253Z" transform="translate(499.342 1882.96) scale(4)" fill="#30FD93"/>
<path d="M86.0334 9.37258L2.20598 18.7451C1.10299 18.7451 0.551493 18.1938 0.551493 17.0912L0 11.0265C0 9.92388 0.551497 9.37258 1.65449 9.37258L85.4819 0C86.5849 0 87.1364 0.551343 87.1364 1.654L87.6879 7.71858C87.6879 8.26991 86.5849 9.37258 86.0334 9.37258Z" transform="translate(505.961 1999.84) scale(4)" fill="#30FD93"/>
<path d="M63.422 9.37254L2.20598 15.9885C1.10299 15.9885 0.551498 15.4371 0.551498 14.3345L0 8.2699C0 7.16725 0.551492 6.6159 1.65448 6.6159L62.8705 0C63.9735 0 64.525 0.551343 64.525 1.654L65.0765 7.71858C64.525 8.82123 63.9735 9.37254 63.422 9.37254Z" transform="translate(620.671 2260.06) scale(4)" fill="#30FD93"/>
<path d="M84.9304 9.37258L2.20599 18.1938C1.103 18.1938 0.551498 17.6425 0.551498 16.5398L0 10.4752C0 9.37256 0.551497 8.82126 1.65449 8.82126L84.3789 0C85.4819 0 86.0334 0.551343 86.0334 1.654L86.5849 7.71858C86.5849 8.26991 86.0334 9.37258 84.9304 9.37258Z" transform="translate(541.256 2330.63) scale(4)" fill="#30FD93"/>
<path d="M0 0L9.92692 90.4176" transform="translate(918.479 2030.71) scale(4)" stroke="#30FD93" stroke-width="0.2" stroke-miterlimit="10" stroke-linecap="round"/>
<path d="M90.4453 0L0 9.92389" transform="translate(958.188 2352.69) scale(4)" stroke="#30FD93" stroke-width="0.2" stroke-miterlimit="10" stroke-linecap="round"/>
<path d="M2.20599 4.41059C3.42432 4.41059 4.41198 3.42323 4.41198 2.20527C4.41198 0.987316 3.42432 0 2.20599 0C0.987661 0 0 0.987316 0 2.20527C0 3.42323 0.987661 4.41059 2.20599 4.41059Z" transform="translate(1019.95 2244.63) scale(4)" fill="#2E3192" stroke="#2E3192" stroke-width="0.0859783" stroke-miterlimit="10"/>
<path d="M2.20597 4.41063C3.4243 4.41063 4.41196 3.42327 4.41196 2.20531C4.41196 0.987358 3.4243 0 2.20597 0C0.98764 0 0 0.987358 0 2.20531C0 3.42327 0.98764 4.41063 2.20597 4.41063Z" transform="translate(1143.49 2116.72) scale(4)" fill="#2E3192" stroke="#2E3192" stroke-width="0.0859783" stroke-miterlimit="10"/>
<path d="M2.20597 4.41059C3.4243 4.41059 4.41196 3.42323 4.41196 2.20527C4.41196 0.987316 3.4243 0 2.20597 0C0.98764 0 0 0.987316 0 2.20527C0 3.42323 0.98764 4.41059 2.20597 4.41059Z" transform="translate(1154.52 2211.55) scale(4)" fill="#2E3192" stroke="#2E3192" stroke-width="0.0859783" stroke-miterlimit="10"/>
<path d="M2.20597 4.41059C3.4243 4.41059 4.41196 3.42323 4.41196 2.20527C4.41196 0.987316 3.4243 0 2.20597 0C0.98764 0 0 0.987316 0 2.20527C0 3.42323 0.98764 4.41059 2.20597 4.41059Z" transform="translate(1158.93 2057.18) scale(4)" fill="#2E3192" stroke="#2E3192" stroke-width="0.0859783" stroke-miterlimit="10"/>
<path d="M2.20599 4.41063C3.42432 4.41063 4.41198 3.42327 4.41198 2.20531C4.41198 0.987358 3.42432 0 2.20599 0C0.987661 0 0 0.987358 0 2.20531C0 3.42327 0.987661 4.41063 2.20599 4.41063Z" transform="translate(1064.07 2174.06) scale(4)" fill="#2E3192" stroke="#2E3192" stroke-width="0.0859783" stroke-miterlimit="10"/>
<path d="M2.20599 4.41059C3.42432 4.41059 4.41196 3.42327 4.41196 2.20531C4.41196 0.987358 3.42432 0 2.20599 0C0.987661 0 0 0.987358 0 2.20531C0 3.42327 0.987661 4.41059 2.20599 4.41059Z" transform="translate(1013.34 2335.04) scale(4)" fill="#2E3192" stroke="#2E3192" stroke-width="0.0859783" stroke-miterlimit="10"/>
<path d="M86.0334 9.37253L2.20598 18.7451C1.10299 18.7451 0.551493 18.1938 0.551493 17.0911L0 11.0265C0 9.92388 0.551492 9.37253 1.65448 9.37253L85.4819 0C86.5849 0 87.1364 0.551301 87.1364 1.65395L87.6879 7.71858C87.6879 8.26991 87.1364 9.37253 86.0334 9.37253Z" transform="translate(512.577 2070.41) scale(4)" fill="#30FD93"/>
<path d="M86.0334 9.37253L2.20598 18.7451C1.10299 18.7451 0.551498 18.1938 0.551498 17.0911L0 11.0265C0 9.92388 0.551497 9.37253 1.65449 9.37253L85.4819 0C86.5849 0 87.1364 0.551343 87.1364 1.654L87.6879 7.71858C87.1364 8.26991 86.5849 9.37253 86.0334 9.37253Z" transform="translate(521.401 2138.77) scale(4)" fill="#30FD93"/>
<path d="M84.9304 9.37253L2.20598 18.1938C1.10299 18.1938 0.551493 17.6424 0.551493 16.5398L0 10.4752C0 9.37256 0.551497 8.82122 1.65449 8.82122L84.3789 0C85.4819 0 86.0334 0.551301 86.0334 1.65395L86.5849 7.71858C86.0334 8.26991 85.4819 9.37253 84.9304 9.37253Z" transform="translate(550.081 2401.2) scale(4)" fill="#30FD93"/>
<path d="M191.921 9.37253L2.20599 30.323C1.103 30.323 0.551498 29.7716 0.551498 28.669L0 22.6044C0 21.5018 0.551497 20.9504 1.65449 20.9504L191.369 0C192.472 0 193.024 0.551343 193.024 1.654L193.575 7.71858C193.024 8.26991 192.472 8.82121 191.921 9.37253Z" transform="translate(558.905 2425.46) scale(4)" fill="#30FD93"/>
<path d="M191.921 9.37253L2.20598 30.323C1.10299 30.323 0.551498 29.7716 0.551498 28.669L0 22.6043C0 21.5017 0.551497 20.9503 1.65449 20.9503L191.369 0C192.472 0 193.024 0.551259 193.024 1.65391L193.575 7.71854C193.575 8.26987 193.024 9.37253 191.921 9.37253Z" transform="translate(565.521 2493.83) scale(4)" fill="#30FD93"/>
<path d="M191.921 9.37262L2.20599 30.323C1.103 30.323 0.551498 29.7717 0.551498 28.669L0 22.6044C0 21.5018 0.551497 20.9504 1.65449 20.9504L191.369 0C192.472 0 193.024 0.551343 193.024 1.654L193.575 7.71862C193.024 8.26995 192.472 8.82129 191.921 9.37262Z" transform="translate(574.346 2566.6) scale(4)" fill="#30FD93"/>
</svg>
