<svg width="1600" height="220" viewBox="0 0 1600 220" fill="none" xmlns="http://www.w3.org/2000/svg">
<mask id="mask0" mask-type="alpha" maskUnits="userSpaceOnUse" x="0" y="0" width="1600" height="218">
<path d="M29.3305 23.9108C31.7134 24.5658 33.7559 25.5485 35.458 27.1862C39.8834 31.7718 40.2239 39.6329 36.4793 44.8736C33.4155 48.8041 29.3305 50.7694 24.2242 51.097C16.3946 51.4245 8.56493 51.097 0.735298 51.097C-0.285958 51.097 0.0544706 50.4419 0.0544706 49.7868C0.0544706 35.0473 0.0544706 20.3078 0.0544706 5.24071C0.0544706 3.93053 0.0544706 2.29281 0.0544706 0.982634C0.0544706 0.327544 0.054455 0 1.07571 0C8.2245 0 15.3733 0 22.5221 0C27.6284 0 32.0538 1.96527 34.7772 6.55089C37.5005 10.809 37.1601 17.0323 34.0963 20.6353C33.4155 21.2904 33.0751 21.9455 32.0538 22.273C31.0325 22.9281 30.3517 23.5832 29.3305 23.9108ZM10.6074 35.3748C10.6074 37.3401 10.6074 39.3054 10.6074 40.9431C10.6074 41.5982 10.9478 41.9257 11.6287 41.9257C15.0329 41.9257 18.4371 41.9257 21.8412 41.9257C24.2242 41.9257 25.9263 40.9431 27.288 38.9778C30.0113 35.0473 27.288 28.8239 21.1604 28.8239C17.7562 28.8239 14.6925 28.8239 11.2883 28.8239C10.6074 28.8239 10.267 29.1515 10.267 29.8066C10.6074 31.7718 10.6074 33.7371 10.6074 35.3748ZM16.3945 9.49879C14.6925 9.49879 12.9904 9.49879 11.2883 9.49879C10.9479 9.49879 10.267 9.49879 10.267 10.1539C10.267 13.4293 10.267 16.7048 10.267 19.9802C10.267 20.3078 10.267 20.6353 10.9479 20.6353C14.0116 20.6353 17.4158 20.6353 20.4796 20.6353C22.8625 20.6353 24.2242 19.3251 24.905 17.3599C25.2454 16.0497 25.2454 15.0671 24.905 13.7569C24.2242 11.1365 22.8625 9.82634 19.7987 9.82634C19.1179 9.49879 17.7562 9.49879 16.3945 9.49879Z" transform="translate(917.583 9.17188) scale(4)" fill="black"/>
<path d="M39.4965 24.8066C43.5815 24.8066 47.6665 24.8066 51.4111 24.8066C52.4324 24.8066 52.4324 24.8066 52.4324 25.7892C52.4324 30.7024 51.4111 35.6156 49.0282 40.2012C46.6453 45.1144 42.5602 48.3898 37.4539 50.0275C30.3051 52.3204 23.1564 52.6479 16.0076 49.7C7.83751 46.4246 2.73122 40.5287 0.68871 32.3401C-1.01338 24.4791 0.34829 16.618 5.79499 10.0671C10.2204 4.49885 16.348 1.2234 23.4968 0.240766C28.9435 -0.414323 34.0498 0.240767 39.156 2.53358C41.8794 3.84376 43.9219 5.48148 45.9644 7.44675C46.3048 7.77429 46.6453 8.10184 45.9644 8.75692C43.9219 10.3946 41.539 12.3599 39.4965 13.9976C38.8156 14.3252 38.8156 14.3252 38.1348 13.9976C36.0923 12.0324 33.7093 10.7222 30.986 10.0671C26.901 8.75692 22.8159 9.41201 19.0713 11.7048C7.83751 18.2557 8.51834 34.3054 19.0713 40.8563C22.4755 43.1491 26.2201 43.4766 30.3051 42.8216C33.0285 42.494 35.4114 41.5114 37.4539 39.8737C39.156 38.2359 40.1773 36.2707 40.8581 34.3054C41.1985 33.3228 40.5177 33.6503 39.8369 33.6503C35.7519 33.6503 31.6668 33.6503 27.5818 33.6503C25.8797 33.6503 25.8797 33.6503 25.8797 32.0126C25.8797 30.0473 25.8797 28.0821 25.8797 26.1168C25.8797 25.4617 26.2201 25.1342 26.901 25.1342C31.3264 24.8066 35.4114 24.8066 39.4965 24.8066Z" transform="translate(0 8.20898) scale(4)" fill="black"/>
<path d="M28.473 22.273C28.8134 21.9455 28.8134 21.6179 28.8134 21.2904C28.8134 14.7395 28.8134 8.18861 28.8134 1.31018C28.8134 0.327545 29.1539 0 30.1751 0C32.8985 0 35.2814 0 38.0047 0C38.6856 0 39.026 0.327544 39.026 0.982634C39.026 18.015 39.026 34.7197 39.026 51.752C39.026 52.7347 38.6856 52.7347 38.0047 52.7347C35.2814 52.7347 32.8985 52.7347 30.1751 52.7347C29.1539 52.7347 29.1539 52.4071 29.1539 51.752C29.1539 51.097 29.1539 50.4419 29.1539 49.4592C29.1539 49.1317 29.1539 49.1317 29.1539 48.8041C28.8134 48.8041 28.8134 48.8041 28.473 49.1317C20.9838 56.3377 7.02663 54.0449 2.26076 43.891C-1.14343 37.0125 -0.803008 30.1341 3.96286 23.9108C6.68621 20.3078 10.4308 18.3425 15.1967 17.6874C19.2817 17.0323 23.0263 17.6874 26.4305 19.9802C26.7709 20.6353 27.4518 21.2904 28.473 22.273ZM28.1326 35.7024C28.1326 30.1341 23.0263 26.8587 19.2817 26.8587C13.835 26.8587 9.74998 31.1167 9.74998 35.7024C9.74998 40.9431 13.835 44.8736 18.9413 44.8736C24.0476 44.5461 28.1326 40.288 28.1326 35.7024Z" transform="translate(543.83 2.62109) scale(4)" fill="black"/>
<path d="M29.1858 31.5632C28.8454 31.5632 28.8454 31.5632 28.8454 31.5632C23.3987 36.4763 17.2712 37.1314 10.4628 34.1835C4.33526 31.5632 1.27149 26.9775 0.25023 20.7542C-0.430608 16.1686 0.250232 11.9105 2.63316 7.97996C6.71819 1.75662 14.2074 -1.19129 21.6966 0.446437C24.42 1.10153 26.8029 2.41171 29.1858 4.70452C29.1858 3.39434 29.1858 2.41171 29.1858 1.42907C29.1858 0.773982 29.1858 0.446437 30.2071 0.446437C32.9304 0.446437 35.6538 0.446437 38.3771 0.446437C39.058 0.446437 39.058 0.773982 39.058 1.42907C39.058 12.238 39.058 23.3746 39.058 34.1835C39.058 34.8386 38.7176 34.8386 38.0367 34.8386C35.3134 34.8386 32.59 34.8386 29.8667 34.8386C29.1858 34.8386 28.8454 34.5111 28.8454 33.856C29.1858 33.2009 29.1858 32.2183 29.1858 31.5632ZM19.6541 26.65C24.42 26.9775 29.1858 23.047 29.1858 17.8063C29.1858 12.5656 25.1008 8.9626 19.9945 8.9626C14.8882 8.9626 10.4628 12.8931 10.8032 17.8063C10.4628 23.7021 15.2287 26.9775 19.6541 26.65Z" transform="translate(353.066 72.8945) scale(4)" fill="black"/>
<path d="M35.0631 53.0622C34.7227 53.3898 34.3823 53.3898 34.0419 53.3898C30.6377 53.3898 27.2335 53.3898 23.8293 53.3898C23.1485 53.3898 22.4676 53.0622 22.1272 52.4071C18.3826 48.1491 14.638 43.5634 11.2338 39.3054C10.8934 38.9778 10.8934 38.9778 10.553 38.6503C10.2126 38.9778 10.2126 39.3053 10.2126 39.6329C10.2126 43.891 10.2126 47.8215 10.2126 52.0796C10.2126 53.0622 9.87216 53.0622 9.19132 53.0622C6.46797 53.0622 3.74462 53.0622 1.02127 53.0622C0.340429 53.0622 0 53.0622 0 52.0796C0 35.0473 0 18.015 0 0.982634C0 0.327544 0.340429 0 1.02127 0C3.74462 0 6.12753 0 8.85088 0C9.87214 0 10.2126 0.327545 10.2126 1.31018C10.2126 10.1539 10.2126 18.67 10.2126 27.5137C10.2126 27.8413 10.2126 28.1688 10.2126 28.4964C10.553 28.4964 10.8934 28.1688 10.8934 27.8413C13.2763 24.8934 15.9997 22.273 18.3826 19.3251C18.723 18.67 19.4039 18.67 20.0847 18.67C23.4889 18.67 27.2335 18.67 30.6377 18.67C30.9781 18.67 31.3185 18.67 31.659 18.9976C31.659 19.3251 31.3185 19.6527 31.3185 19.6527C27.2335 24.2383 23.1485 28.4964 19.0634 33.082C18.3826 33.7371 18.3826 34.0646 19.0634 34.7197C24.1697 40.6155 29.6164 46.5113 34.7227 52.4071C34.7227 52.7347 34.7227 53.0622 35.0631 53.0622Z" transform="translate(1459.75) scale(4)" fill="black"/>
<path d="M23.8943 21.396C19.8093 21.396 15.7243 21.396 11.6393 21.396C10.9584 21.396 10.618 21.396 10.9584 22.3787C12.3201 25.3266 14.703 26.9643 18.1072 27.2919C22.1922 27.6194 25.5964 26.9643 28.6602 24.0164C29.0006 23.6889 29.341 23.6889 29.6814 24.0164C31.3835 25.6541 32.7452 26.9643 34.4473 28.602C35.1281 29.2571 34.7877 29.5847 34.4473 29.9122C32.0644 32.5326 29.0006 34.1703 25.5964 35.1529C20.1497 36.4631 15.0434 36.4631 9.93717 33.8427C5.17131 31.5499 2.10754 27.9469 0.745861 23.0338C-0.615814 17.4655 -0.275393 12.5523 3.12879 7.63918C5.85214 3.3811 10.2776 1.08829 15.0434 0.433197C21.8518 -0.876982 27.9793 0.760741 33.0856 5.67391C35.809 8.62181 37.1707 11.8973 37.5111 15.8278C37.5111 17.138 37.5111 18.7757 37.5111 20.0859C37.5111 20.741 37.1706 21.0685 36.4898 21.0685C32.4048 21.396 28.3198 21.396 23.8943 21.396ZM19.1285 15.1727C21.171 15.1727 23.5539 15.1727 25.5964 15.1727C27.9794 15.1727 27.9794 14.8452 26.9581 12.8799C25.5964 9.93199 22.8731 8.94935 19.8093 8.62181C15.7243 8.29426 12.3201 10.2595 10.9584 13.8625C10.618 15.1727 10.618 15.1727 11.9797 15.1727C14.3626 15.1727 16.7455 15.1727 19.1285 15.1727Z" transform="translate(729.631 71.6367) scale(4)" fill="black"/>
<path d="M19.4167 0C29.2888 0 36.7781 5.8958 38.4801 15.0671C40.1822 23.5832 35.076 32.0994 26.2251 34.7197C19.4167 37.0125 12.9487 36.0299 7.16162 32.0994C2.39575 28.8239 0.353244 24.2383 0.0128248 18.67C-0.327594 9.17125 6.14036 1.96527 15.6721 0.327544C17.3742 -3.17252e-07 18.3954 0 19.4167 0ZM19.4167 26.5311C24.523 26.5311 28.608 22.9281 28.608 18.015C28.608 12.4467 24.8634 8.8437 19.7571 8.8437C14.6508 8.8437 10.5658 12.4467 10.5658 17.3599C10.5658 22.9281 13.97 26.5311 19.4167 26.5311Z" transform="translate(1273.15 73.3691) scale(4)" fill="black"/>
<path d="M19.3112 0C28.1621 0 35.3109 4.91317 37.6938 12.7742C40.4172 21.6179 36.6725 30.1341 27.8217 34.0646C17.6091 38.6503 5.69445 34.7197 1.60943 25.2209C-3.15643 14.412 2.97109 2.29281 15.907 0.327544C16.9283 -3.17252e-07 18.2899 0 19.3112 0ZM19.3112 26.5311C24.4175 26.5311 28.5025 22.6006 28.5025 17.6874C28.5025 12.4467 24.7579 8.51616 19.3112 8.51616C14.2049 8.51616 10.1199 12.4467 10.1199 17.3599C10.4603 22.9281 14.2049 26.8587 19.3112 26.5311Z" transform="translate(1097.91 73.3691) scale(4)" fill="black"/>
<path d="M9.87215 7.39756C10.553 6.08738 11.2338 5.10475 11.9147 3.79457C14.638 0.519122 18.0422 -0.463512 22.1272 0.191577C23.1485 0.191577 24.1697 0.519123 25.191 0.846668C25.5314 1.17421 25.8718 1.17421 25.8718 1.8293C25.191 4.44966 24.5102 7.07001 23.8293 9.69037C23.8293 10.3455 23.4889 10.3455 22.8081 10.0179C20.7655 9.03528 18.723 8.70774 16.6805 9.36282C13.6168 10.0179 11.9147 12.3107 10.8934 15.2586C10.2126 17.5514 9.87215 19.8443 9.87215 22.4646C9.87215 26.3951 9.87215 30.3257 9.87215 34.5838C9.87215 35.2388 9.53173 35.5664 8.85089 35.5664C6.12754 35.5664 3.40419 35.5664 1.02125 35.5664C-2.63777e-06 35.5664 0 35.2388 0 34.5838C0 23.7748 0 12.9658 0 2.15684C0 1.50176 0.340416 1.17421 1.02125 1.17421C3.7446 1.17421 6.46796 1.17421 8.85089 1.17421C9.53173 1.17421 9.87215 1.50176 9.87215 2.15684C9.87215 3.79457 9.87215 5.10474 9.87215 6.74247C9.53173 6.74247 9.53173 7.07001 9.87215 7.39756Z" transform="translate(241.049 72.6035) scale(4)" fill="black"/>
</mask>
<g mask="url(#mask0)">
<rect width="400" height="54" transform="scale(4)" fill="url(#paint0_linear)"/>
</g>
<defs>
<linearGradient id="paint0_linear" x2="1" gradientUnits="userSpaceOnUse" gradientTransform="matrix(343.802 40.5 -300 866.755 181.405 -429.52)">
<stop stop-color="#527AFF"/>
<stop offset="1" stop-color="#03E8B4"/>
</linearGradient>
</defs>
</svg>
